# ASTRAWILD original generated prop: SM_AstraResonator
mtllib ASTRAWILD_Props.mtl
o SM_AstraResonator
v 0.000000 0.000000 42.000000
v 16.072704 0.000000 38.802940
v 13.919370 8.036352 38.802940
v 8.036352 13.919370 38.802940
v 0.000000 16.072704 38.802940
v -8.036352 13.919370 38.802940
v -13.919370 8.036352 38.802940
v -16.072704 0.000000 38.802940
v -13.919370 -8.036352 38.802940
v -8.036352 -13.919370 38.802940
v -0.000000 -16.072704 38.802940
v 8.036352 -13.919370 38.802940
v 13.919370 -8.036352 38.802940
v 29.698485 0.000000 29.698485
v 25.719642 14.849242 29.698485
v 14.849242 25.719642 29.698485
v 0.000000 29.698485 29.698485
v -14.849242 25.719642 29.698485
v -25.719642 14.849242 29.698485
v -29.698485 0.000000 29.698485
v -25.719642 -14.849242 29.698485
v -14.849242 -25.719642 29.698485
v -0.000000 -29.698485 29.698485
v 14.849242 -25.719642 29.698485
v 25.719642 -14.849242 29.698485
v 38.802940 0.000000 16.072704
v 33.604332 19.401470 16.072704
v 19.401470 33.604332 16.072704
v 0.000000 38.802940 16.072704
v -19.401470 33.604332 16.072704
v -33.604332 19.401470 16.072704
v -38.802940 0.000000 16.072704
v -33.604332 -19.401470 16.072704
v -19.401470 -33.604332 16.072704
v -0.000000 -38.802940 16.072704
v 19.401470 -33.604332 16.072704
v 33.604332 -19.401470 16.072704
v 42.000000 0.000000 0.000000
v 36.373067 21.000000 0.000000
v 21.000000 36.373067 0.000000
v 0.000000 42.000000 0.000000
v -21.000000 36.373067 0.000000
v -36.373067 21.000000 0.000000
v -42.000000 0.000000 0.000000
v -36.373067 -21.000000 0.000000
v -21.000000 -36.373067 0.000000
v -0.000000 -42.000000 0.000000
v 21.000000 -36.373067 0.000000
v 36.373067 -21.000000 0.000000
v 38.802940 0.000000 -16.072704
v 33.604332 19.401470 -16.072704
v 19.401470 33.604332 -16.072704
v 0.000000 38.802940 -16.072704
v -19.401470 33.604332 -16.072704
v -33.604332 19.401470 -16.072704
v -38.802940 0.000000 -16.072704
v -33.604332 -19.401470 -16.072704
v -19.401470 -33.604332 -16.072704
v -0.000000 -38.802940 -16.072704
v 19.401470 -33.604332 -16.072704
v 33.604332 -19.401470 -16.072704
v 29.698485 0.000000 -29.698485
v 25.719642 14.849242 -29.698485
v 14.849242 25.719642 -29.698485
v 0.000000 29.698485 -29.698485
v -14.849242 25.719642 -29.698485
v -25.719642 14.849242 -29.698485
v -29.698485 0.000000 -29.698485
v -25.719642 -14.849242 -29.698485
v -14.849242 -25.719642 -29.698485
v -0.000000 -29.698485 -29.698485
v 14.849242 -25.719642 -29.698485
v 25.719642 -14.849242 -29.698485
v 16.072704 0.000000 -38.802940
v 13.919370 8.036352 -38.802940
v 8.036352 13.919370 -38.802940
v 0.000000 16.072704 -38.802940
v -8.036352 13.919370 -38.802940
v -13.919370 8.036352 -38.802940
v -16.072704 0.000000 -38.802940
v -13.919370 -8.036352 -38.802940
v -8.036352 -13.919370 -38.802940
v -0.000000 -16.072704 -38.802940
v 8.036352 -13.919370 -38.802940
v 13.919370 -8.036352 -38.802940
v 0.000000 0.000000 -42.000000
v -55.000000 -4.000000 0.000000
v 55.000000 -4.000000 0.000000
v -55.000000 -3.464102 -2.000000
v 55.000000 -3.464102 -2.000000
v -55.000000 -2.000000 -3.464102
v 55.000000 -2.000000 -3.464102
v -55.000000 -0.000000 -4.000000
v 55.000000 -0.000000 -4.000000
v -55.000000 2.000000 -3.464102
v 55.000000 2.000000 -3.464102
v -55.000000 3.464102 -2.000000
v 55.000000 3.464102 -2.000000
v -55.000000 4.000000 -0.000000
v 55.000000 4.000000 -0.000000
v -55.000000 3.464102 2.000000
v 55.000000 3.464102 2.000000
v -55.000000 2.000000 3.464102
v 55.000000 2.000000 3.464102
v -55.000000 0.000000 4.000000
v 55.000000 0.000000 4.000000
v -55.000000 -2.000000 3.464102
v 55.000000 -2.000000 3.464102
v -55.000000 -3.464102 2.000000
v 55.000000 -3.464102 2.000000
v 4.000000 -55.000000 0.000000
v 4.000000 55.000000 0.000000
v 3.464102 -55.000000 -2.000000
v 3.464102 55.000000 -2.000000
v 2.000000 -55.000000 -3.464102
v 2.000000 55.000000 -3.464102
v 0.000000 -55.000000 -4.000000
v 0.000000 55.000000 -4.000000
v -2.000000 -55.000000 -3.464102
v -2.000000 55.000000 -3.464102
v -3.464102 -55.000000 -2.000000
v -3.464102 55.000000 -2.000000
v -4.000000 -55.000000 -0.000000
v -4.000000 55.000000 -0.000000
v -3.464102 -55.000000 2.000000
v -3.464102 55.000000 2.000000
v -2.000000 -55.000000 3.464102
v -2.000000 55.000000 3.464102
v -0.000000 -55.000000 4.000000
v -0.000000 55.000000 4.000000
v 2.000000 -55.000000 3.464102
v 2.000000 55.000000 3.464102
v 3.464102 -55.000000 2.000000
v 3.464102 55.000000 2.000000
usemtl M_AstraCore
f 1 2 3
f 1 3 4
f 1 4 5
f 1 5 6
f 1 6 7
f 1 7 8
f 1 8 9
f 1 9 10
f 1 10 11
f 1 11 12
f 1 12 13
f 1 13 2
f 2 14 15 3
f 3 15 16 4
f 4 16 17 5
f 5 17 18 6
f 6 18 19 7
f 7 19 20 8
f 8 20 21 9
f 9 21 22 10
f 10 22 23 11
f 11 23 24 12
f 12 24 25 13
f 13 25 14 2
f 14 26 27 15
f 15 27 28 16
f 16 28 29 17
f 17 29 30 18
f 18 30 31 19
f 19 31 32 20
f 20 32 33 21
f 21 33 34 22
f 22 34 35 23
f 23 35 36 24
f 24 36 37 25
f 25 37 26 14
f 26 38 39 27
f 27 39 40 28
f 28 40 41 29
f 29 41 42 30
f 30 42 43 31
f 31 43 44 32
f 32 44 45 33
f 33 45 46 34
f 34 46 47 35
f 35 47 48 36
f 36 48 49 37
f 37 49 38 26
f 38 50 51 39
f 39 51 52 40
f 40 52 53 41
f 41 53 54 42
f 42 54 55 43
f 43 55 56 44
f 44 56 57 45
f 45 57 58 46
f 46 58 59 47
f 47 59 60 48
f 48 60 61 49
f 49 61 50 38
f 50 62 63 51
f 51 63 64 52
f 52 64 65 53
f 53 65 66 54
f 54 66 67 55
f 55 67 68 56
f 56 68 69 57
f 57 69 70 58
f 58 70 71 59
f 59 71 72 60
f 60 72 73 61
f 61 73 62 50
f 62 74 75 63
f 63 75 76 64
f 64 76 77 65
f 65 77 78 66
f 66 78 79 67
f 67 79 80 68
f 68 80 81 69
f 69 81 82 70
f 70 82 83 71
f 71 83 84 72
f 72 84 85 73
f 73 85 74 62
f 74 86 75
f 75 86 76
f 76 86 77
f 77 86 78
f 78 86 79
f 79 86 80
f 80 86 81
f 81 86 82
f 82 86 83
f 83 86 84
f 84 86 85
f 85 86 74
usemtl M_Iron
f 87 89 90 88
f 89 91 92 90
f 91 93 94 92
f 93 95 96 94
f 95 97 98 96
f 97 99 100 98
f 99 101 102 100
f 101 103 104 102
f 103 105 106 104
f 105 107 108 106
f 107 109 110 108
f 109 87 88 110
f 109 107 105 103 101 99 97 95 93 91 89 87
f 88 90 92 94 96 98 100 102 104 106 108 110
f 111 113 114 112
f 113 115 116 114
f 115 117 118 116
f 117 119 120 118
f 119 121 122 120
f 121 123 124 122
f 123 125 126 124
f 125 127 128 126
f 127 129 130 128
f 129 131 132 130
f 131 133 134 132
f 133 111 112 134
f 133 131 129 127 125 123 121 119 117 115 113 111
f 112 114 116 118 120 122 124 126 128 130 132 134
