# ASTRAWILD original generated prop: SM_AstraCrystal
mtllib ASTRAWILD_Props.mtl
o SM_AstraCrystal
v 1.472243 0.850000 -5.000000
v 0.000000 1.700000 -5.000000
v -1.472243 0.850000 -5.000000
v -1.472243 -0.850000 -5.000000
v -0.000000 -1.700000 -5.000000
v 1.472243 -0.850000 -5.000000
v 20.022507 11.560000 16.000000
v 0.000000 23.120000 16.000000
v -20.022507 11.560000 16.000000
v -20.022507 -11.560000 16.000000
v -0.000000 -23.120000 16.000000
v 20.022507 -11.560000 16.000000
v 24.144788 13.940000 116.500000
v 0.000000 27.880000 116.500000
v -24.144788 13.940000 116.500000
v -24.144788 -13.940000 116.500000
v -0.000000 -27.880000 116.500000
v 24.144788 -13.940000 116.500000
v 1.177795 0.680000 145.000000
v 0.000000 1.360000 145.000000
v -1.177795 0.680000 145.000000
v -1.177795 -0.680000 145.000000
v -0.000000 -1.360000 145.000000
v 1.177795 -0.680000 145.000000
v 0.519615 0.300000 14.000000
v 0.000000 0.600000 14.000000
v -0.519615 0.300000 14.000000
v -0.519615 -0.300000 14.000000
v -0.000000 -0.600000 14.000000
v 0.519615 -0.300000 14.000000
v 7.066767 4.080000 29.680000
v 0.000000 8.160000 29.680000
v -7.066767 4.080000 29.680000
v -7.066767 -4.080000 29.680000
v -0.000000 -8.160000 29.680000
v 7.066767 -4.080000 29.680000
v 8.521690 4.920000 104.720000
v 0.000000 9.840000 104.720000
v -8.521690 4.920000 104.720000
v -8.521690 -4.920000 104.720000
v -0.000000 -9.840000 104.720000
v 8.521690 -4.920000 104.720000
v 0.415692 0.240000 126.000000
v 0.000000 0.480000 126.000000
v -0.415692 0.240000 126.000000
v -0.415692 -0.240000 126.000000
v -0.000000 -0.480000 126.000000
v 0.415692 -0.240000 126.000000
usemtl M_AstraCrystal
f 1 2 8 7
f 2 3 9 8
f 3 4 10 9
f 4 5 11 10
f 5 6 12 11
f 6 1 7 12
f 7 8 14 13
f 8 9 15 14
f 9 10 16 15
f 10 11 17 16
f 11 12 18 17
f 12 7 13 18
f 13 14 20 19
f 14 15 21 20
f 15 16 22 21
f 16 17 23 22
f 17 18 24 23
f 18 13 19 24
usemtl M_AstraCore
f 25 26 32 31
f 26 27 33 32
f 27 28 34 33
f 28 29 35 34
f 29 30 36 35
f 30 25 31 36
f 31 32 38 37
f 32 33 39 38
f 33 34 40 39
f 34 35 41 40
f 35 36 42 41
f 36 31 37 42
f 37 38 44 43
f 38 39 45 44
f 39 40 46 45
f 40 41 47 46
f 41 42 48 47
f 42 37 43 48
