# ASTRAWILD original generated prop: SM_CampfireBase
mtllib ASTRAWILD_Props.mtl
o SM_CampfireBase
v -58.000000 0.000000 4.000000
v -58.000000 0.000000 14.000000
v -50.229473 -29.000000 4.000000
v -50.229473 -29.000000 14.000000
v -29.000000 -50.229473 4.000000
v -29.000000 -50.229473 14.000000
v -0.000000 -58.000000 4.000000
v -0.000000 -58.000000 14.000000
v 29.000000 -50.229473 4.000000
v 29.000000 -50.229473 14.000000
v 50.229473 -29.000000 4.000000
v 50.229473 -29.000000 14.000000
v 58.000000 -0.000000 4.000000
v 58.000000 -0.000000 14.000000
v 50.229473 29.000000 4.000000
v 50.229473 29.000000 14.000000
v 29.000000 50.229473 4.000000
v 29.000000 50.229473 14.000000
v 0.000000 58.000000 4.000000
v 0.000000 58.000000 14.000000
v -29.000000 50.229473 4.000000
v -29.000000 50.229473 14.000000
v -50.229473 29.000000 4.000000
v -50.229473 29.000000 14.000000
v -42.000000 -10.000000 25.000000
v 42.000000 -10.000000 25.000000
v -42.000000 -7.071068 17.928932
v 42.000000 -7.071068 17.928932
v -42.000000 -0.000000 15.000000
v 42.000000 -0.000000 15.000000
v -42.000000 7.071068 17.928932
v 42.000000 7.071068 17.928932
v -42.000000 10.000000 25.000000
v 42.000000 10.000000 25.000000
v -42.000000 7.071068 32.071068
v 42.000000 7.071068 32.071068
v -42.000000 0.000000 35.000000
v 42.000000 0.000000 35.000000
v -42.000000 -7.071068 32.071068
v 42.000000 -7.071068 32.071068
v 10.000000 -42.000000 25.000000
v 10.000000 42.000000 25.000000
v 7.071068 -42.000000 17.928932
v 7.071068 42.000000 17.928932
v -0.000000 -42.000000 15.000000
v 0.000000 42.000000 15.000000
v -7.071068 -42.000000 17.928932
v -7.071068 42.000000 17.928932
v -10.000000 -42.000000 25.000000
v -10.000000 42.000000 25.000000
v -7.071068 -42.000000 32.071068
v -7.071068 42.000000 32.071068
v -0.000000 -42.000000 35.000000
v 0.000000 42.000000 35.000000
v 7.071068 -42.000000 32.071068
v 7.071068 42.000000 32.071068
v -22.627417 -36.769553 25.000000
v 36.769553 22.627417 25.000000
v -24.698485 -34.698485 17.928932
v 34.698485 24.698485 17.928932
v -29.698485 -29.698485 15.000000
v 29.698485 29.698485 15.000000
v -34.698485 -24.698485 17.928932
v 24.698485 34.698485 17.928932
v -36.769553 -22.627417 25.000000
v 22.627417 36.769553 25.000000
v -34.698485 -24.698485 32.071068
v 24.698485 34.698485 32.071068
v -29.698485 -29.698485 35.000000
v 29.698485 29.698485 35.000000
v -24.698485 -34.698485 32.071068
v 34.698485 24.698485 32.071068
v -36.769553 22.627417 25.000000
v 22.627417 -36.769553 25.000000
v -34.698485 24.698485 17.928932
v 24.698485 -34.698485 17.928932
v -29.698485 29.698485 15.000000
v 29.698485 -29.698485 15.000000
v -24.698485 34.698485 17.928932
v 34.698485 -24.698485 17.928932
v -22.627417 36.769553 25.000000
v 36.769553 -22.627417 25.000000
v -24.698485 34.698485 32.071068
v 34.698485 -24.698485 32.071068
v -29.698485 29.698485 35.000000
v 29.698485 -29.698485 35.000000
v -34.698485 24.698485 32.071068
v 24.698485 -34.698485 32.071068
v 0.866025 0.500000 23.000000
v 0.000000 1.000000 23.000000
v -0.866025 0.500000 23.000000
v -0.866025 -0.500000 23.000000
v -0.000000 -1.000000 23.000000
v 0.866025 -0.500000 23.000000
v 11.777945 6.800000 27.760000
v 0.000000 13.600000 27.760000
v -11.777945 6.800000 27.760000
v -11.777945 -6.800000 27.760000
v -0.000000 -13.600000 27.760000
v 11.777945 -6.800000 27.760000
v 14.202817 8.200000 50.540000
v 0.000000 16.400000 50.540000
v -14.202817 8.200000 50.540000
v -14.202817 -8.200000 50.540000
v -0.000000 -16.400000 50.540000
v 14.202817 -8.200000 50.540000
v 0.692820 0.400000 57.000000
v 0.000000 0.800000 57.000000
v -0.692820 0.400000 57.000000
v -0.692820 -0.400000 57.000000
v -0.000000 -0.800000 57.000000
v 0.692820 -0.400000 57.000000
usemtl M_Charcoal
f 1 3 4 2
f 3 5 6 4
f 5 7 8 6
f 7 9 10 8
f 9 11 12 10
f 11 13 14 12
f 13 15 16 14
f 15 17 18 16
f 17 19 20 18
f 19 21 22 20
f 21 23 24 22
f 23 1 2 24
f 23 21 19 17 15 13 11 9 7 5 3 1
f 2 4 6 8 10 12 14 16 18 20 22 24
usemtl M_Wood_End
f 25 27 28 26
f 27 29 30 28
f 29 31 32 30
f 31 33 34 32
f 33 35 36 34
f 35 37 38 36
f 37 39 40 38
f 39 25 26 40
usemtl M_Charcoal
f 39 37 35 33 31 29 27 25
f 26 28 30 32 34 36 38 40
usemtl M_Wood_End
f 41 43 44 42
f 43 45 46 44
f 45 47 48 46
f 47 49 50 48
f 49 51 52 50
f 51 53 54 52
f 53 55 56 54
f 55 41 42 56
usemtl M_Charcoal
f 55 53 51 49 47 45 43 41
f 42 44 46 48 50 52 54 56
usemtl M_Wood_End
f 57 59 60 58
f 59 61 62 60
f 61 63 64 62
f 63 65 66 64
f 65 67 68 66
f 67 69 70 68
f 69 71 72 70
f 71 57 58 72
usemtl M_Charcoal
f 71 69 67 65 63 61 59 57
f 58 60 62 64 66 68 70 72
usemtl M_Wood_End
f 73 75 76 74
f 75 77 78 76
f 77 79 80 78
f 79 81 82 80
f 81 83 84 82
f 83 85 86 84
f 85 87 88 86
f 87 73 74 88
usemtl M_Charcoal
f 87 85 83 81 79 77 75 73
f 74 76 78 80 82 84 86 88
usemtl M_Ember
f 89 90 96 95
f 90 91 97 96
f 91 92 98 97
f 92 93 99 98
f 93 94 100 99
f 94 89 95 100
f 95 96 102 101
f 96 97 103 102
f 97 98 104 103
f 98 99 105 104
f 99 100 106 105
f 100 95 101 106
f 101 102 108 107
f 102 103 109 108
f 103 104 110 109
f 104 105 111 110
f 105 106 112 111
f 106 101 107 112
