# ASTRAWILD original generated prop: SM_LumenRock
mtllib ASTRAWILD_Props.mtl
o SM_LumenRock
v 15.686312 0.000000 -4.000000
v 14.786265 12.407150 -4.000000
v 2.939010 16.667955 -4.000000
v -8.562871 14.831327 -4.000000
v -18.023858 6.560148 -4.000000
v -14.735082 -5.363131 -4.000000
v -9.622557 -16.666757 -4.000000
v 2.955864 -16.763538 -4.000000
v 13.043358 -10.944677 -4.000000
v 40.460464 0.000000 12.720000
v 38.300540 32.137969 12.720000
v 7.434444 42.162825 12.720000
v -22.405578 38.807599 12.720000
v -45.845676 16.686461 12.720000
v -37.968335 -13.819344 12.720000
v -24.943760 -43.203859 12.720000
v 7.474812 -42.391767 12.720000
v 34.125892 -28.635023 12.720000
v 56.533689 0.000000 38.560000
v 53.461888 44.859850 38.560000
v 10.169755 57.675547 38.560000
v -31.665336 54.845972 38.560000
v -62.869006 22.882447 38.560000
v -53.000106 -19.290461 38.560000
v -34.845224 -60.353698 38.560000
v 10.220330 -57.962371 38.560000
v 48.231801 -40.471287 38.560000
v 38.780454 0.000000 58.320000
v 36.449132 30.584453 58.320000
v 6.822226 38.690767 58.320000
v -21.901290 37.934148 58.320000
v -42.142284 15.338537 58.320000
v -36.324049 -13.220873 58.320000
v -23.776001 -41.181242 58.320000
v 6.852043 -38.859865 58.320000
v 33.365722 -27.997165 58.320000
v 12.687873 0.000000 72.000000
v 11.794445 9.896715 72.000000
v 2.181906 12.374201 72.000000
v -7.201250 12.472930 72.000000
v -13.422467 4.885378 72.000000
v -11.874818 -4.322080 72.000000
v -7.699922 -13.336656 72.000000
v 2.189837 -12.419181 72.000000
v 10.974259 -9.208497 72.000000
v 0.000000 0.000000 -8.560000
v 0.000000 0.000000 76.560000
usemtl M_LumenStone
f 46 2 1
f 47 37 38
f 46 3 2
f 47 38 39
f 46 4 3
f 47 39 40
f 46 5 4
f 47 40 41
f 46 6 5
f 47 41 42
f 46 7 6
f 47 42 43
f 46 8 7
f 47 43 44
f 46 9 8
f 47 44 45
f 46 1 9
f 47 45 37
f 1 2 11 10
f 2 3 12 11
f 3 4 13 12
f 4 5 14 13
f 5 6 15 14
f 6 7 16 15
f 7 8 17 16
f 8 9 18 17
f 9 1 10 18
f 10 11 20 19
f 11 12 21 20
f 12 13 22 21
f 13 14 23 22
f 14 15 24 23
f 15 16 25 24
f 16 17 26 25
f 17 18 27 26
f 18 10 19 27
f 19 20 29 28
f 20 21 30 29
f 21 22 31 30
f 22 23 32 31
f 23 24 33 32
f 24 25 34 33
f 25 26 35 34
f 26 27 36 35
f 27 19 28 36
f 28 29 38 37
f 29 30 39 38
f 30 31 40 39
f 31 32 41 40
f 32 33 42 41
f 33 34 43 42
f 34 35 44 43
f 35 36 45 44
f 36 28 37 45
