# ASTRAWILD original generated prop: SM_PrimalPick
mtllib ASTRAWILD_Props.mtl
o SM_PrimalPick
v -8.000000 0.000000 -70.000000
v -8.000000 0.000000 65.000000
v -5.656854 -5.656854 -70.000000
v -5.656854 -5.656854 65.000000
v -0.000000 -8.000000 -70.000000
v -0.000000 -8.000000 65.000000
v 5.656854 -5.656854 -70.000000
v 5.656854 -5.656854 65.000000
v 8.000000 -0.000000 -70.000000
v 8.000000 -0.000000 65.000000
v 5.656854 5.656854 -70.000000
v 5.656854 5.656854 65.000000
v 0.000000 8.000000 -70.000000
v 0.000000 8.000000 65.000000
v -5.656854 5.656854 -70.000000
v -5.656854 5.656854 65.000000
v -38.000000 -10.000000 65.000000
v 38.000000 -10.000000 65.000000
v -38.000000 -7.071068 57.928932
v 38.000000 -7.071068 57.928932
v -38.000000 -0.000000 55.000000
v 38.000000 -0.000000 55.000000
v -38.000000 7.071068 57.928932
v 38.000000 7.071068 57.928932
v -38.000000 10.000000 65.000000
v 38.000000 10.000000 65.000000
v -38.000000 7.071068 72.071068
v 38.000000 7.071068 72.071068
v -38.000000 0.000000 75.000000
v 38.000000 0.000000 75.000000
v -38.000000 -7.071068 72.071068
v 38.000000 -7.071068 72.071068
v -37.393782 0.350000 37.500000
v -38.000000 0.700000 37.500000
v -38.606218 0.350000 37.500000
v -38.606218 -0.350000 37.500000
v -38.000000 -0.700000 37.500000
v -37.393782 -0.350000 37.500000
v -29.755438 4.760000 45.200000
v -38.000000 9.520000 45.200000
v -46.244562 4.760000 45.200000
v -46.244562 -4.760000 45.200000
v -38.000000 -9.520000 45.200000
v -29.755438 -4.760000 45.200000
v -28.058028 5.740000 82.050000
v -38.000000 11.480000 82.050000
v -47.941972 5.740000 82.050000
v -47.941972 -5.740000 82.050000
v -38.000000 -11.480000 82.050000
v -28.058028 -5.740000 82.050000
v -37.515026 0.280000 92.500000
v -38.000000 0.560000 92.500000
v -38.484974 0.280000 92.500000
v -38.484974 -0.280000 92.500000
v -38.000000 -0.560000 92.500000
v -37.515026 -0.280000 92.500000
v 38.606218 0.350000 37.500000
v 38.000000 0.700000 37.500000
v 37.393782 0.350000 37.500000
v 37.393782 -0.350000 37.500000
v 38.000000 -0.700000 37.500000
v 38.606218 -0.350000 37.500000
v 46.244562 4.760000 45.200000
v 38.000000 9.520000 45.200000
v 29.755438 4.760000 45.200000
v 29.755438 -4.760000 45.200000
v 38.000000 -9.520000 45.200000
v 46.244562 -4.760000 45.200000
v 47.941972 5.740000 82.050000
v 38.000000 11.480000 82.050000
v 28.058028 5.740000 82.050000
v 28.058028 -5.740000 82.050000
v 38.000000 -11.480000 82.050000
v 47.941972 -5.740000 82.050000
v 38.484974 0.280000 92.500000
v 38.000000 0.560000 92.500000
v 37.515026 0.280000 92.500000
v 37.515026 -0.280000 92.500000
v 38.000000 -0.560000 92.500000
v 38.484974 -0.280000 92.500000
usemtl M_PrimalWood
f 1 3 4 2
f 3 5 6 4
f 5 7 8 6
f 7 9 10 8
f 9 11 12 10
f 11 13 14 12
f 13 15 16 14
f 15 1 2 16
f 15 13 11 9 7 5 3 1
f 2 4 6 8 10 12 14 16
usemtl M_PrimalStone
f 17 19 20 18
f 19 21 22 20
f 21 23 24 22
f 23 25 26 24
f 25 27 28 26
f 27 29 30 28
f 29 31 32 30
f 31 17 18 32
f 31 29 27 25 23 21 19 17
f 18 20 22 24 26 28 30 32
f 33 34 40 39
f 34 35 41 40
f 35 36 42 41
f 36 37 43 42
f 37 38 44 43
f 38 33 39 44
f 39 40 46 45
f 40 41 47 46
f 41 42 48 47
f 42 43 49 48
f 43 44 50 49
f 44 39 45 50
f 45 46 52 51
f 46 47 53 52
f 47 48 54 53
f 48 49 55 54
f 49 50 56 55
f 50 45 51 56
f 57 58 64 63
f 58 59 65 64
f 59 60 66 65
f 60 61 67 66
f 61 62 68 67
f 62 57 63 68
f 63 64 70 69
f 64 65 71 70
f 65 66 72 71
f 66 67 73 72
f 67 68 74 73
f 68 63 69 74
f 69 70 76 75
f 70 71 77 76
f 71 72 78 77
f 72 73 79 78
f 73 74 80 79
f 74 69 75 80
