# ASTRAWILD original generated prop: SM_PrimalAxe
mtllib ASTRAWILD_Props.mtl
o SM_PrimalAxe
v -8.000000 0.000000 -70.000000
v -8.000000 0.000000 70.000000
v -5.656854 -5.656854 -70.000000
v -5.656854 -5.656854 70.000000
v -0.000000 -8.000000 -70.000000
v -0.000000 -8.000000 70.000000
v 5.656854 -5.656854 -70.000000
v 5.656854 -5.656854 70.000000
v 8.000000 -0.000000 -70.000000
v 8.000000 -0.000000 70.000000
v 5.656854 5.656854 -70.000000
v 5.656854 5.656854 70.000000
v 0.000000 8.000000 -70.000000
v 0.000000 8.000000 70.000000
v -5.656854 5.656854 -70.000000
v -5.656854 5.656854 70.000000
v -1.000000 -6.000000 26.000000
v 41.000000 -6.000000 26.000000
v 41.000000 6.000000 26.000000
v -1.000000 6.000000 26.000000
v -1.000000 -6.000000 84.000000
v 41.000000 -6.000000 84.000000
v 41.000000 6.000000 84.000000
v -1.000000 6.000000 84.000000
v -7.000000 -8.500000 18.000000
v 17.000000 -8.500000 18.000000
v 17.000000 8.500000 18.000000
v -7.000000 8.500000 18.000000
v -7.000000 -8.500000 88.000000
v 17.000000 -8.500000 88.000000
v 17.000000 8.500000 88.000000
v -7.000000 8.500000 88.000000
usemtl M_PrimalWood
f 1 3 4 2
f 3 5 6 4
f 5 7 8 6
f 7 9 10 8
f 9 11 12 10
f 11 13 14 12
f 13 15 16 14
f 15 1 2 16
f 15 13 11 9 7 5 3 1
f 2 4 6 8 10 12 14 16
usemtl M_PrimalStone
f 17 20 19 18
f 21 22 23 24
f 17 18 22 21
f 18 19 23 22
f 19 20 24 23
f 20 17 21 24
f 25 28 27 26
f 29 30 31 32
f 25 26 30 29
f 26 27 31 30
f 27 28 32 31
f 28 25 29 32
