# ASTRAWILD original generated prop: SM_SunwoodLog
mtllib ASTRAWILD_Props.mtl
o SM_SunwoodLog
v -85.000000 -28.000000 0.000000
v 85.000000 -28.000000 0.000000
v -85.000000 -24.248711 -14.000000
v 85.000000 -24.248711 -14.000000
v -85.000000 -14.000000 -24.248711
v 85.000000 -14.000000 -24.248711
v -85.000000 -0.000000 -28.000000
v 85.000000 -0.000000 -28.000000
v -85.000000 14.000000 -24.248711
v 85.000000 14.000000 -24.248711
v -85.000000 24.248711 -14.000000
v 85.000000 24.248711 -14.000000
v -85.000000 28.000000 -0.000000
v 85.000000 28.000000 -0.000000
v -85.000000 24.248711 14.000000
v 85.000000 24.248711 14.000000
v -85.000000 14.000000 24.248711
v 85.000000 14.000000 24.248711
v -85.000000 0.000000 28.000000
v 85.000000 0.000000 28.000000
v -85.000000 -14.000000 24.248711
v 85.000000 -14.000000 24.248711
v -85.000000 -24.248711 14.000000
v 85.000000 -24.248711 14.000000
v -83.000000 -0.500000 25.000000
v -83.000000 -0.500000 30.000000
v -78.846788 -16.000000 25.000000
v -78.846788 -16.000000 30.000000
v -67.500000 -27.346788 25.000000
v -67.500000 -27.346788 30.000000
v -52.000000 -31.500000 25.000000
v -52.000000 -31.500000 30.000000
v -36.500000 -27.346788 25.000000
v -36.500000 -27.346788 30.000000
v -25.153212 -16.000000 25.000000
v -25.153212 -16.000000 30.000000
v -21.000000 -0.500000 25.000000
v -21.000000 -0.500000 30.000000
v -25.153212 15.000000 25.000000
v -25.153212 15.000000 30.000000
v -36.500000 26.346788 25.000000
v -36.500000 26.346788 30.000000
v -52.000000 30.500000 25.000000
v -52.000000 30.500000 30.000000
v -67.500000 26.346788 25.000000
v -67.500000 26.346788 30.000000
v -78.846788 15.000000 25.000000
v -78.846788 15.000000 30.000000
v -31.000000 -0.500000 25.000000
v -31.000000 -0.500000 30.000000
v -26.846788 -16.000000 25.000000
v -26.846788 -16.000000 30.000000
v -15.500000 -27.346788 25.000000
v -15.500000 -27.346788 30.000000
v -0.000000 -31.500000 25.000000
v -0.000000 -31.500000 30.000000
v 15.500000 -27.346788 25.000000
v 15.500000 -27.346788 30.000000
v 26.846788 -16.000000 25.000000
v 26.846788 -16.000000 30.000000
v 31.000000 -0.500000 25.000000
v 31.000000 -0.500000 30.000000
v 26.846788 15.000000 25.000000
v 26.846788 15.000000 30.000000
v 15.500000 26.346788 25.000000
v 15.500000 26.346788 30.000000
v 0.000000 30.500000 25.000000
v 0.000000 30.500000 30.000000
v -15.500000 26.346788 25.000000
v -15.500000 26.346788 30.000000
v -26.846788 15.000000 25.000000
v -26.846788 15.000000 30.000000
v 21.000000 -0.500000 25.000000
v 21.000000 -0.500000 30.000000
v 25.153212 -16.000000 25.000000
v 25.153212 -16.000000 30.000000
v 36.500000 -27.346788 25.000000
v 36.500000 -27.346788 30.000000
v 52.000000 -31.500000 25.000000
v 52.000000 -31.500000 30.000000
v 67.500000 -27.346788 25.000000
v 67.500000 -27.346788 30.000000
v 78.846788 -16.000000 25.000000
v 78.846788 -16.000000 30.000000
v 83.000000 -0.500000 25.000000
v 83.000000 -0.500000 30.000000
v 78.846788 15.000000 25.000000
v 78.846788 15.000000 30.000000
v 67.500000 26.346788 25.000000
v 67.500000 26.346788 30.000000
v 52.000000 30.500000 25.000000
v 52.000000 30.500000 30.000000
v 36.500000 26.346788 25.000000
v 36.500000 26.346788 30.000000
v 25.153212 15.000000 25.000000
v 25.153212 15.000000 30.000000
usemtl M_Bark_Sunwood
f 1 3 4 2
f 3 5 6 4
f 5 7 8 6
f 7 9 10 8
f 9 11 12 10
f 11 13 14 12
f 13 15 16 14
f 15 17 18 16
f 17 19 20 18
f 19 21 22 20
f 21 23 24 22
f 23 1 2 24
usemtl M_Wood_End
f 23 21 19 17 15 13 11 9 7 5 3 1
f 2 4 6 8 10 12 14 16 18 20 22 24
usemtl M_Bark_Sunwood
f 25 27 28 26
f 27 29 30 28
f 29 31 32 30
f 31 33 34 32
f 33 35 36 34
f 35 37 38 36
f 37 39 40 38
f 39 41 42 40
f 41 43 44 42
f 43 45 46 44
f 45 47 48 46
f 47 25 26 48
f 49 51 52 50
f 51 53 54 52
f 53 55 56 54
f 55 57 58 56
f 57 59 60 58
f 59 61 62 60
f 61 63 64 62
f 63 65 66 64
f 65 67 68 66
f 67 69 70 68
f 69 71 72 70
f 71 49 50 72
f 73 75 76 74
f 75 77 78 76
f 77 79 80 78
f 79 81 82 80
f 81 83 84 82
f 83 85 86 84
f 85 87 88 86
f 87 89 90 88
f 89 91 92 90
f 91 93 94 92
f 93 95 96 94
f 95 73 74 96
